<?xml version="1.0" standalone="no"?>
<!DOCTYPE svg PUBLIC "-//W3C//DTD SVG 20010904//EN"
 "http://www.w3.org/TR/2001/REC-SVG-20010904/DTD/svg10.dtd">
<svg version="1.0" xmlns="http://www.w3.org/2000/svg"
 width="512.000000pt" height="512.000000pt" viewBox="0 0 512.000000 512.000000"
 preserveAspectRatio="xMidYMid meet">
<metadata>
Created by potrace 1.14, written by Peter Selinger 2001-2017
</metadata>
<g transform="translate(0.000000,512.000000) scale(0.100000,-0.100000)"
fill="#000000" stroke="none">
<path d="M184 4935 c-22 -22 -25 -33 -20 -63 8 -54 36 -72 110 -73 183 -1 520
-14 641 -24 28 -2 91 -7 140 -10 50 -4 101 -8 115 -10 14 -2 61 -6 105 -10 44
-3 91 -8 105 -10 14 -2 50 -7 81 -10 31 -3 66 -7 77 -10 12 -2 47 -6 79 -10
32 -3 65 -8 73 -10 8 -2 34 -7 58 -10 36 -5 273 -54 336 -70 89 -22 237 -75
311 -112 221 -109 250 -214 104 -377 -63 -69 -136 -127 -309 -246 -74 -51
-160 -113 -190 -138 -255 -206 -346 -377 -286 -535 60 -156 250 -266 641 -367
66 -17 126 -33 133 -36 8 -2 -187 -205 -475 -493 l-489 -489 -98 -1 c-54 -1
-112 -3 -129 -6 -18 -2 -61 -6 -97 -9 -76 -7 -146 -15 -176 -21 -12 -3 -39 -7
-60 -11 -62 -9 -233 -59 -304 -88 -110 -45 -201 -106 -286 -191 -68 -67 -90
-97 -127 -176 -55 -114 -74 -197 -72 -309 3 -93 24 -181 66 -277 66 -148 238
-353 295 -353 42 1 74 29 81 73 5 35 2 41 -63 109 -78 82 -134 163 -169 243
-122 275 -10 561 275 705 58 29 214 84 267 94 194 36 423 62 423 49 0 -3 -91
-96 -203 -207 -111 -111 -210 -211 -220 -223 -18 -20 -39 -105 -182 -723 -52
-227 -59 -261 -56 -287 2 -24 41 -53 69 -53 24 0 576 125 892 201 l85 21 607
606 608 607 297 1 c306 1 370 4 533 30 321 49 542 172 639 354 88 166 69 319
-55 444 -64 65 -146 116 -275 171 l-97 41 450 450 c526 526 513 509 513 679 0
153 -21 187 -243 407 -97 96 -197 187 -221 202 -64 41 -126 56 -213 55 -66 -2
-88 -7 -148 -36 -67 -33 -112 -75 -781 -744 -696 -696 -710 -710 -742 -704
-18 3 -61 13 -96 22 -36 8 -72 16 -80 18 -35 7 -131 35 -211 60 -165 52 -305
130 -345 192 -73 111 69 283 440 534 61 41 139 98 175 128 378 312 340 603
-101 785 -135 55 -363 117 -539 145 -36 6 -76 13 -90 16 -47 10 -200 31 -290
41 -30 3 -66 7 -80 9 -23 3 -66 8 -200 20 -99 9 -169 14 -265 20 -55 3 -129 8
-165 10 -36 2 -174 7 -308 10 l-242 6 -26 -26z m3769 -2460 c316 -119 411
-230 336 -394 -51 -112 -164 -198 -328 -251 -71 -22 -82 -25 -191 -45 -29 -5
-94 -14 -165 -21 -78 -7 -468 -14 -478 -7 -13 8 724 743 744 743 9 0 46 -11
82 -25z"/>
</g>
</svg>
